<?xml version="1.0" encoding="utf-8"?>
<!-- Generator: Adobe Illustrator 28.0.0, SVG Export Plug-In . SVG Version: 6.00 Build 0)  -->
<svg version="1.1" xmlns="http://www.w3.org/2000/svg" xmlns:xlink="http://www.w3.org/1999/xlink" x="0px" y="0px"
	 viewBox="0 0 1113.33 177" style="enable-background:new 0 0 1113.33 177;" xml:space="preserve">
<style type="text/css">
	.st0{fill:#FFFFFF;}
	.st1{fill:#F5FBFF;}
</style>
<g id="_x31__00000027578209874058673780000006021897855536417194_">
	<g id="_x31_">
		<path class="st0" d="M144.87,99.85c-1.14-7.89-6.29-15.1-13.39-18.73c-7.1-3.63-15.95-3.6-23.02,0.09
			c-4.4-11.52-16.55-19.61-28.88-19.2c-12.33,0.41-23.92,9.28-27.55,21.07c-7.77-0.44-15.07,6.87-14.6,14.64
			c-5.9-2.66-13.01,4.24-11.62,10.57c1.39,6.33,8.99,9.95,15.28,8.4c15.75,11.62,37.95,13.84,55.69,5.55
			c14.11,9.33,35.71,3.92,43.76-10.95c-1.06,1.96,15.78,5.14,19.04-2.03C163.27,101.14,151.07,96.25,144.87,99.85z"/>
		<g>
			<path class="st1" d="M25.82,108.29c1.39,6.33,8.99,9.95,15.28,8.4c15.75,11.62,37.95,13.84,55.69,5.55
				c14.11,9.33,35.71,3.92,43.76-10.95c-1.06,1.96,15.78,5.14,19.04-2.03c3.69-8.12-8.51-13.01-14.71-9.42
				c-1.14-7.89-6.29-15.1-13.39-18.73c-1.99-1.02-4.13-1.74-6.32-2.18c2.37,2.98,4.33,6.26,5.14,9.94
				c1.11,5.07-0.51,11.04-4.97,13.69c-3.11,1.85-6.95,1.82-10.56,1.65c-4.25-0.2-9.33-1.07-11.01-4.98
				c-0.57-1.32-0.63-2.8-0.89-4.22c-1.3-7.17-8.4-12.82-15.68-12.47c3.76,0.45,6.21,4.8,5.45,8.51c-0.76,3.71-3.99,6.53-7.56,7.8
				c-3.57,1.27-7.45,1.23-11.23,1.03c-6.33-0.34-13.32-1.48-17.28-6.43c-3.09,3.32-8.61,4.03-12.44,1.6
				c-1.88-1.19-3.2-3.05-3.94-5.12c-0.06-0.17-0.1-0.42-0.13-0.71c-1.77,2.47-2.8,5.44-2.61,8.49
				C31.53,95.06,24.42,101.96,25.82,108.29z"/>
		</g>
	</g>
</g>
<g id="_x32__00000181067844073301392960000006733026730034463404_">
	<g id="_x32__00000109749640230875147340000014508064859725690755_">
		<path class="st0" d="M104.34,97.34c1.74-0.43,3.6-0.4,5.31,0.16c-1.37-10.53,8.8-21.62,19.39-15.39
			c0.74-4.73,3.07-9.38,7.04-12.05c3.97-2.67,9.69-2.93,13.41,0.08c0.12-5.2,3.41-10.01,7.84-12.74c4.42-2.73,9.82-3.56,15-3.18
			c5.71,0.41,11.37,2.61,15.64,6.47c5.02,4.54,5.9,10.54,5.52,17.13c2.71-0.53,5.56-0.71,8.19,0.1c7.5,2.33,8.85,12.6,6.96,19.12
			c4.74-0.97,9.76-1.77,14.31-0.14c4.55,1.64,8.27,6.57,6.87,11.2c2.68-1.1,5.43-2.2,8.32-2.34c2.89-0.15,6.01,0.84,7.69,3.19
			c2.28,3.18,1.25,7.75-1.02,10.93c-3.03,4.26-7.94,6.93-13.04,8.05c-8.81,1.94-18.5-0.62-25.2-6.67c1.25,1.13-9.33,7.14-10.34,7.47
			c-4.25,1.4-8.57,2.86-13.06,1.76c-4.84-1.19-9.04-4.43-11.97-8.46c-10.19,8.18-26.27,7.82-36.09-0.81
			c-9.5,7.83-24.85,7.27-33.76-1.24c-3.7,1.46-8.35,2.11-11.29-0.57c-2.25-2.05-2.68-5.82-0.94-8.32c1.74-2.5,5.42-3.41,8.13-2
			c-0.85-3.34,0.25-7.1,2.76-9.45C101.24,98.51,102.74,97.73,104.34,97.34z"/>
		<path class="st1" d="M193.5,77.81c0.38-6.59-0.5-12.59-5.52-17.13c-4.27-3.86-9.93-6.06-15.64-6.47c-5.18-0.37-10.58,0.46-15,3.18
			c8.77-1.26,18.45-0.85,25.44,4.58c1.78,1.38,3.36,3.07,4.42,5.06c1.19,2.24,1.71,4.81,1.66,7.35c-0.12,5.9-3.29,11.53-7.92,15.19
			c-4.63,3.66-10.58,5.44-16.48,5.57c6.02,1.4,12.56,0.42,17.9-2.69C187.69,89.36,193.15,83.98,193.5,77.81z"/>
		<path class="st1" d="M149.5,70.13c-3.72-3.01-9.44-2.75-13.41-0.08c-3.97,2.67-6.31,7.32-7.04,12.05
			c-0.49,3.17,2.59,5.89,5.42,7.41c2.83,1.51,6.19,1.84,9.37,1.38c-3.13-0.32-5.67-2.87-6.89-5.77c-1.56-3.7-1.27-8.21,1.04-11.5
			C140.29,70.33,145.6,69.17,149.5,70.13z"/>
		<g>
			<path class="st1" d="M109.65,97.5c-1.71-0.56-3.57-0.59-5.31-0.16c-1.6,0.39-3.1,1.18-4.3,2.3c-2.51,2.36-3.61,6.12-2.76,9.45
				c-2.7-1.4-6.38-0.5-8.13,2c-1.74,2.5-1.32,6.27,0.94,8.32c2.94,2.68,7.59,2.03,11.29,0.57c8.91,8.5,24.26,9.07,33.76,1.24
				c9.82,8.63,25.89,8.99,36.09,0.81c2.93,4.04,7.12,7.27,11.97,8.46c4.5,1.1,8.81-0.36,13.06-1.76c1.01-0.33,11.59-6.34,10.34-7.47
				c6.7,6.05,16.38,8.61,25.2,6.67c5.1-1.12,10.01-3.8,13.04-8.05c2.27-3.18,3.3-7.75,1.02-10.93c-1.69-2.35-4.8-3.34-7.69-3.19
				c-2.89,0.15-5.64,1.25-8.32,2.34c1.4-4.63-2.32-9.56-6.87-11.2c-4.55-1.64-9.58-0.83-14.31,0.14c1.89-6.52,0.54-16.8-6.96-19.12
				c-1.56-0.48-3.19-0.61-4.83-0.53c1.1,5.54,0.55,11.56-2.59,16.22c-3.32,4.93-9.93,7.82-15.49,5.74
				c-5.6,5.07-13.49,7.52-20.98,6.5c-7.49-1.02-14.44-5.47-18.49-11.85c-4.22,2.85-10.55,2.56-13.95-1.22
				c-3.53-3.92-1.78-7.88,0.16-11.8c0.05-0.1,0.09-0.2,0.13-0.29C116.39,78.27,108.42,88.1,109.65,97.5z"/>
		</g>
	</g>
</g>
<g id="_x33__00000087378441953335419020000003827429444210873492_">
	<g id="_x33_">
		<path class="st0" d="M216.74,102.56c-15.1-8.33-16.44-32.36-0.54-40.43c1.95-0.99,4.86-2.52,7.04-2.84
			c1.1-0.16,8.31,0.77,8.23,2.39c0.27-5.51,4.35-10.2,9.11-13c11.94-7.02,29-3.33,36.97,8.01c7.97,11.33,5.67,28.64-4.99,37.49
			c4.24-1.9,9.66-0.64,12.64,2.92c2.97,3.56,3.24,9.13,0.61,12.95c5.6-3.24,13.6-1.25,17.04,4.22c8.49-1.83,17.53-1.08,25.6,2.13
			c1.8,0.72,3.63,1.61,4.79,3.16c1.16,1.55,1.43,3.93,0.11,5.36c-0.84,0.91-2.12,1.26-3.34,1.5c-4.66,0.93-9.45,0.95-14.2,0.98
			c-22.21,0.11-44.43,0.21-66.64,0.32c-2.24,0.01-4.55,0.01-6.59-0.91c-2.04-0.92-3.72-3.02-3.41-5.24
			c-3.25,2.57-7.08,4.56-11.2,5.01c-4.12,0.45-8.54-0.81-11.34-3.87c-12.95,3.51-26.62,4.32-39.89,2.37
			c-2.18-0.32-4.43-0.74-6.27-1.96c-1.84-1.21-3.21-3.42-2.8-5.59c0.41-2.18,2.49-3.73,4.65-4.21c2.16-0.47,4.41-0.07,6.58,0.37
			c-0.85-4.23,1.7-8.6,5.31-10.96c3.61-2.36,8.06-3.04,12.37-3.18C203.41,99.34,210.28,100.37,216.74,102.56z"/>
		<g>
			<path class="st1" d="M172.32,113.33c-2.16,0.47-4.24,2.03-4.65,4.21c-0.41,2.17,0.95,4.37,2.8,5.59
				c1.84,1.21,4.09,1.64,6.27,1.96c13.27,1.95,26.94,1.14,39.89-2.37c2.8,3.06,7.22,4.32,11.34,3.87c4.12-0.45,7.95-2.44,11.2-5.01
				c-0.31,2.22,1.38,4.32,3.41,5.24c2.04,0.92,4.36,0.93,6.59,0.91c22.21-0.11,44.43-0.21,66.64-0.32c4.75-0.02,9.54-0.05,14.2-0.98
				c1.22-0.24,2.5-0.59,3.34-1.5c1.31-1.43,1.05-3.8-0.11-5.36c-0.43-0.58-0.95-1.06-1.53-1.48c-6.76,1.97-14.21,1.26-21.23,0
				c-2.4-0.43-4.96-1.01-6.61-2.8c-0.29-0.31-0.52-0.68-0.71-1.07c-0.1,0.02-0.21,0.04-0.31,0.06c-3.44-5.48-11.44-7.46-17.04-4.22
				c2.62-3.83,2.36-9.39-0.61-12.95c-2.97-3.56-8.4-4.82-12.64-2.92c7.96-6.62,11.25-17.96,9.09-27.99
				c-1.02,6.91-3.43,13.65-7.72,19.12c-5.07,6.47-12.99,10.95-21.21,10.73c-1.11-8.45-6.58-16.22-14.17-20.09
				c4.11,3.14,4.22,9.98,0.7,13.78s-9.68,4.45-14.34,2.19c-4.66-2.26-7.82-6.98-9.05-12.01c-1.82-7.48,0.74-13.77,4.65-19.81
				c-1.54,0.61-3.11,1.43-4.32,2.04c-15.9,8.07-14.57,32.1,0.54,40.43c-1.62-0.55-3.26-1.03-4.92-1.43
				c-5.47,1.44-11.54,2.35-16.94,3.82c-5.72,1.55-11.46,5.08-13.19,10.75c-0.87-0.72-1.8-1.4-2.77-2.01c0,0,0,0,0,0
				C176.74,113.26,174.49,112.86,172.32,113.33z"/>
		</g>
	</g>
</g>
<g id="_x34__00000040545525282597370920000016563734967041774767_">
	<g id="_x34__00000042004831598542798100000010263397859474657718_">
		<path class="st0" d="M257.22,73.51c3.76-1.61,8.36-1.03,11.6,1.46c-0.63-8.37,4.69-16.85,12.49-19.93
			c7.81-3.08,17.48-0.52,22.74,6.03c3.8-12.85,16.2-23.04,29.6-22.98c13.4,0.06,26.18,11.37,26.67,24.76
			c3.65-4.8,10.55-5.4,16.58-5.18c6,0.21,12.4,0.99,16.98,4.88c6.5,5.51,7.13,15.2,6.78,23.71c7.41-3.45,16.94-3.22,23.04,2.21
			c6.1,5.43,6.88,16.45,0.46,21.5c-5.38,4.24-13.1,3.17-19.75,1.53c-5.63,9.41-14.81,16.87-25.47,19.42
			c-10.67,2.55-22.7-0.23-30.47-7.96c-5.86,8.27-16.46,12.91-26.5,11.6c-10.05-1.31-19.11-8.5-22.66-17.99
			c-6.42,4.42-15.47,4.64-22.1,0.53c-6.63-4.11-10.46-12.31-9.36-20.03c-4.39,3.12-10.92,2.79-14.97-0.76
			C245.8,90.11,248.87,77.08,257.22,73.51z"/>
		<g>
			<path class="st1" d="M281.32,55.03c-7.81,3.08-13.12,11.56-12.49,19.93c-3.24-2.49-7.85-3.07-11.6-1.46
				c-8.35,3.57-11.42,16.6-4.35,22.8c4.05,3.55,10.58,3.88,14.97,0.76c-1.1,7.72,2.73,15.92,9.36,20.03
				c6.63,4.11,15.68,3.89,22.1-0.53c3.55,9.49,12.61,16.68,22.66,17.99c10.05,1.31,20.65-3.33,26.5-11.6
				c7.77,7.73,19.81,10.51,30.47,7.96c10.67-2.55,19.84-10.01,25.47-19.42c6.65,1.64,14.37,2.71,19.75-1.53
				c6.42-5.05,5.65-16.07-0.46-21.5c-6.1-5.43-15.64-5.66-23.04-2.21c0.28-6.91-0.07-14.59-3.69-20.18
				c0.32,7.72-1.13,15.51-4.25,22.58c-1.41,3.2-3.27,6.37-6.19,8.3c-2.47,1.63-5.47,2.21-8.39,2.62
				c-5.74,0.82-11.54,1.15-17.33,0.99c-3.32-0.09-7.16-0.66-8.83-3.52c6.25-8.86,7.09-21.23,2.1-30.85
				c-4.15,10.84-13.91,19.95-25.45,21.13c-11.55,1.18-23.91-7.18-25.2-18.72c-1.69,6.55-0.26,13.83,3.78,19.25
				c-5.71,1.4-11.86,0.98-17.33-1.18c-5.1-2.01-9.81-5.83-11.34-11.09c-1.57-5.43,0.61-11.46,4.46-15.6
				c2.54-2.73,5.55-4.36,8.67-5.95C288.19,53.45,284.59,53.74,281.32,55.03z"/>
		</g>
	</g>
</g>
<g id="_x35__00000156573053608056426140000005142286230225161344_">
	<g id="_x35_">
		<path class="st0" d="M403.44,62.2c10.53-2.93,22.16-0.37,30.4,9.1c9.65-4.77,21.57-4.67,31.14,0.26
			c9.57,4.93,16.57,14.57,18.3,25.2c5.64-0.75,11.44-1.49,16.94-0.04c5.5,1.46,10.66,5.68,11.44,11.31
			c6.83,0.23,13.99,6.85,11.45,13.19c-1.44,3.59-5.41,5.57-9.24,6.11c-3.83,0.54-7.73-0.03-11.6,0.11c-8.31,0.31-16.09,3.87-24,6.41
			c-6.55,2.1-13.77,3.07-20.61,1.84c-5.29-0.96-10.48-3.71-13.21-8.34c-7.45,6.37-17.77,8.12-27.56,8.58
			c-7.29,0.34-14.78,0.07-21.58-2.58c-6.8-2.65-12.86-8.03-14.75-15.08c-9.64,3.39-20.82,1.68-28.43-5.23
			c-5.67-5.15-5.44-14.66-0.22-20.11c4.12-4.3,10.78-4.63,16.74-4.5c4.14,0.09,8.54,0.36,11.93,2.74
			c-0.92-6.15,1.54-12.45,5.42-17.32C390.64,68.04,396.82,64.04,403.44,62.2z"/>
		<path class="st1" d="M403.44,62.2c-6.61,1.84-12.8,5.84-17.44,11.66c-3.88,4.86-6.35,11.16-5.42,17.32
			c0.71,4.71,2.37,8.84,6.02,11.89c3.65,3.05,8.17,4.86,12.7,6.33C392.69,94.16,393.89,75.78,403.44,62.2z"/>
		<g>
			<path class="st1" d="M352.12,113.04c7.61,6.91,18.79,8.62,28.43,5.23c1.89,7.05,7.95,12.43,14.75,15.08
				c6.8,2.65,14.29,2.92,21.58,2.58c9.79-0.46,20.11-2.21,27.56-8.58c2.72,4.63,7.92,7.38,13.21,8.34
				c6.84,1.24,14.05,0.27,20.61-1.84c7.92-2.54,15.7-6.1,24-6.41c3.87-0.14,7.76,0.43,11.6-0.11c3.83-0.54,7.8-2.52,9.24-6.11
				c2.54-6.34-4.62-12.96-11.45-13.19c-0.09-0.66-0.25-1.29-0.45-1.91c-2.69-0.28-5.44-0.19-8.1,0.18
				c-13.76,1.93-25.99,10.37-39.78,12.08c-3.72,0.46-7.57,0.41-11.11-0.82c-3.09-1.07-5.82-3-8.23-5.22
				c-4.57-4.21-8.1-9.56-10.17-15.42c2.11,8.35-4.48,17.01-12.6,19.89c-8.12,2.88-17.12,1.31-25.39-1.1
				c-5.21-1.52-10.99-4.04-12.54-9.23c-6.08,5.07-15.89,5.78-21.77,0.48c-6.67-6.02-3.3-11.94-0.79-18.15
				c-3.36,0.53-6.49,1.69-8.81,4.12C346.68,98.38,346.45,107.89,352.12,113.04z"/>
		</g>
	</g>
</g>
<g id="_x36__00000085220091500802930790000001096423273882071994_">
	<g id="_x36__00000017476880903673264740000009388548247190914468_">
		<path class="st0" d="M615.5,43.22c-14.01-4.63-30.34,1.14-39.7,12.55c-8.87-12.33-25.51-18.5-40.28-14.93
			c-14.77,3.57-26.75,16.67-29,31.69c-7.73-2.26-16.17-3-23.77-0.33c-7.6,2.67-14.13,9.25-15.16,17.23
			c-5.65-1.17-11.44-2.34-17.16-1.53s-11.45,3.98-13.71,9.29c-3.35,7.87,2.57,17.4,10.6,20.33s17.1,0.73,24.79-3.02
			c7.04,8.94,17.78,14.88,29.1,16.09c11.32,1.21,23.07-2.32,31.84-9.57c9.3,10.45,23.26,16.57,37.25,16.34
			c13.98-0.24,27.74-6.83,36.68-17.58c9.51,7.42,31.36,16.25,41.57,5.66c4.31-4.47,5.55-11.63,2.99-17.28
			c6.26,0.05,12.36-4.03,14.71-9.83c2.34-5.81,0.78-12.98-3.76-17.29c-9.19-8.71-19.02-2.71-25.74,5.11
			C636.84,68.84,635.24,49.38,615.5,43.22z"/>
		<g>
			<path class="st1" d="M506.52,72.53c-7.73-2.26-16.17-3-23.77-0.33c-7.6,2.67-14.13,9.25-15.16,17.23
				c-5.65-1.17-11.44-2.34-17.16-1.53c-5.72,0.8-11.45,3.98-13.71,9.29c-3.35,7.87,2.57,17.4,10.6,20.33
				c8.04,2.93,17.1,0.73,24.79-3.02c7.04,8.94,17.78,14.88,29.1,16.09c11.32,1.21,23.07-2.32,31.84-9.57
				c9.3,10.45,23.27,16.57,37.25,16.34c13.98-0.24,27.74-6.83,36.68-17.58c9.51,7.42,31.36,16.25,41.57,5.66
				c4.31-4.47,5.55-11.63,2.99-17.28c6.26,0.05,12.36-4.03,14.71-9.83c2.34-5.81,0.78-12.98-3.76-17.29
				c-9.19-8.71-19.02-2.71-25.74,5.11c0.08-13.41-0.87-28.11-10.5-36.92c0.87,9.71-0.86,19.73-6.15,27.85
				c-6.14,9.44-17.53,15.75-28.67,14.14c-4.41-0.64-8.78-2.57-11.56-6.05c-3.64-4.56-3.47-11.22-7.08-15.64
				c-2.9-3.55-7.88-5.15-11.75-7.25c4.4,2.38,6.31,8.11,5.13,12.97c-1.18,4.86-4.93,8.8-9.31,11.22
				c-6.49,3.58-14.65,4.13-21.45,1.15c-6.79-2.98-11.99-9.49-13.08-16.83c-1.19-8,2.4-16.16,7.9-22.09c3.24-3.5,7.1-6.32,11.21-8.76
				c-1.99,0.14-3.96,0.44-5.9,0.91C520.76,44.41,508.77,57.5,506.52,72.53z"/>
		</g>
	</g>
</g>
<g id="_x37__00000078732826594640378480000009051674631121010850_">
	<g id="_x37_">
		<path class="st0" d="M685.56,55.65c-11.52,1.4-21.78,10.28-24.8,21.49c-10.07-5.93-23.98-4.38-32.49,3.62
			c-5.59,5.26-8.54,14.75-3.47,20.51c-6.64,4.86-7.89,15.59-2.54,21.85c5.35,6.26,16.14,6.7,21.98,0.89
			c5.36,9.27,15.5,15.6,26.18,16.35c6.16,0.44,13.39-1.08,18.94-3.77c1.62-0.79,11.76-8.42,9.22-11.03
			c5.38,5.53,12.26,9.88,19.9,10.97c7.64,1.09,16.01-1.52,20.71-7.64c4.69-6.12,4.7-15.77-0.85-21.12
			c5.81-2.47,9.83-8.66,9.72-14.98c-0.1-6.12-4.92-13.35-10.65-15.8c-2.69-1.15-18.43-0.46-17.82,4.74
			c-0.84-7.22-4.54-13.66-9.85-18.36C703.31,57.7,694.53,54.56,685.56,55.65z"/>
		<path class="st1" d="M719.58,81.74c-0.84-7.22-4.54-13.66-9.85-18.36c-6.42-5.67-15.2-8.81-24.17-7.72
			c6.12,2.33,11.07,7.15,15.42,12.05c4.58,5.15,8.83,10.68,11.59,16.99c2.76,6.31,3.93,13.49,2.22,20.16
			C718.02,98.13,720.44,89.14,719.58,81.74z"/>
		<g>
			<path class="st1" d="M624.81,101.27c-6.64,4.86-7.89,15.59-2.54,21.85c5.35,6.26,16.14,6.7,21.98,0.89
				c5.36,9.27,15.5,15.6,26.18,16.35c6.16,0.44,13.39-1.08,18.94-3.77c1.62-0.79,11.76-8.42,9.22-11.03
				c5.38,5.53,12.26,9.88,19.9,10.97c7.64,1.09,16.01-1.52,20.71-7.64c4.69-6.12,4.7-15.77-0.85-21.12
				c5.81-2.47,9.83-8.66,9.72-14.98c-0.1-6.12-4.92-13.35-10.65-15.8c-0.16-0.07-0.38-0.13-0.63-0.19c2.1,2.95,3.03,6.7,1.96,10.13
				c-1.53,4.89-7.74,8.05-12.24,5.59c4.18,11.49-3.35,25.76-15.19,28.8c2.83-7.94,0.56-17.45-5.54-23.26
				c-2.67,10.7-12.13,19.38-23.03,21.11c-10.89,1.73-22.58-3.59-28.44-12.94c-6.4,1.26-13.83,2.25-18.72-2.06
				c-4.29-3.79-4.84-10.44-3.28-15.95c1.77-6.29,5.55-10.7,10.33-14.3c-5.33,0.84-10.42,3.14-14.36,6.84
				C622.68,86.02,619.73,95.51,624.81,101.27z"/>
		</g>
	</g>
</g>
<g id="_x38__00000026129660362083639980000014045564320596155274_">
	<g id="_x38__00000139979755225960575900000014771681624642757815_">
		<path class="st0" d="M881.7,104.92c-4.55-3.19-10.81-3.75-15.86-1.42c0.36-9.5-2-19.57-8.66-26.36
			c-6.66-6.79-18.23-9.15-25.94-3.57c-6.53-11.45-19.89-18.64-33.04-17.77c-13.15,0.86-25.46,9.73-30.44,21.94
			c-21.68-6.65-43.98,7.52-50.99,28.23c-5.51-0.63-11.34-1.22-16.4,1.06c-5.06,2.28-8.77,8.54-6.28,13.51
			c0.81,1.62,2.17,2.9,3.58,4.04c10.31,8.24,24.3,9.74,37.46,10.68c8.71,0.62,17.53,1.12,26.11-0.47
			c8.58-1.6,17.03-5.52,22.46-12.35c3.77,5.67,11.45,6.9,18.23,7.54c20.52,1.94,41.45,3.24,61.85-0.52
			c6.99-1.29,15.98-1.68,21.25-7.13C890.87,116.29,887.96,109.3,881.7,104.92z"/>
		<g>
			<path class="st1" d="M716.77,105.97c-5.51-0.63-11.34-1.22-16.4,1.06c-5.06,2.28-8.77,8.54-6.28,13.51
				c0.81,1.62,2.17,2.9,3.58,4.04c10.31,8.24,24.3,9.74,37.46,10.68c8.71,0.62,17.53,1.12,26.11-0.47
				c8.58-1.6,17.03-5.52,22.46-12.35c3.77,5.67,11.45,6.9,18.23,7.54c20.52,1.94,41.45,3.24,61.85-0.52
				c6.99-1.29,15.98-1.68,21.25-7.13c5.83-6.03,2.92-13.01-3.34-17.4c-4.55-3.19-10.81-3.75-15.86-1.42
				c0.29-7.62-1.18-15.6-5.2-21.96c1.12,3.88,1.26,8-0.1,11.78c-2.96,8.23-11.79,11.21-19.25,7.26
				c-6.5-3.44-10.69-10.53-11.42-17.85c-1.59,14.17-13.76,26.44-27.91,28.16c-14.15,1.71-28.9-7.3-33.83-20.68
				c-1.21,6.9-5.68,13.16-11.82,16.55c-6.14,3.38-13.82,3.82-20.3,1.15c-3.32-1.37-6.45-3.67-7.8-6.99
				c-1.91-4.68,0.16-10.06,3.04-14.21c0.77-1.1,1.6-2.15,2.48-3.17C726,88.9,719.88,96.79,716.77,105.97z"/>
		</g>
	</g>
</g>
<g id="_x39__00000074439011592825624510000016565210851206735248_">
	<g id="_x39_">
		<path class="st0" d="M831.76,98.8c7.93-18.78,33.86-27.19,51.31-16.63c9.28-13.24,26.21-20.67,42.24-18.54
			c16.02,2.13,30.43,13.73,35.92,28.94c8.53-1.78,18.5,2,21.98,9.99c3.48,7.99-2.16,19.06-10.86,19.34
			c-2.86,0.09-5.8-0.86-8.53-0.01c-2.19,0.68-3.86,2.41-5.54,3.97c-21.05,19.59-58.4,17.44-77.08-4.42
			c-12.09,11.45-32.91,12.03-45.62,1.27c1.71,1.45-16.9,6.13-19.05,5.88c-6.9-0.79-15.67-4.58-17.13-12.16
			C796.33,100.54,820.31,91.64,831.76,98.8z"/>
		<g>
			<path class="st1" d="M799.39,116.41c1.46,7.59,10.23,11.37,17.13,12.16c2.15,0.25,20.75-4.43,19.05-5.88
				c12.71,10.76,33.53,10.18,45.62-1.27c18.67,21.87,56.03,24.01,77.08,4.42c1.68-1.56,3.35-3.29,5.54-3.97
				c2.73-0.85,5.67,0.1,8.53,0.01c8.71-0.28,14.34-11.35,10.86-19.34c-3.48-7.99-13.45-11.77-21.98-9.99
				c-1.72-4.76-4.31-9.17-7.56-13.04c1.19,9.06-1.31,18.62-7.05,25.75c-3.05,3.79-6.97,6.93-11.47,8.78
				c-6.49,2.68-13.77,2.57-20.77,2c-4.69-0.38-9.47-0.98-13.72-3.02s-7.94-5.74-8.83-10.37c-0.76-3.93,0.55-7.97,2.32-11.56
				c2.71-5.49,6.54-10.43,11.2-14.41c-12.74,2.69-23.68,12.61-27.62,25.02c-0.55,1.75-1.02,3.62-2.31,4.94
				c-1.06,1.08-2.54,1.63-3.97,2.11c-7.07,2.32-14.52,3.51-21.96,3.5c-6.26,0-13.28-1.29-16.83-6.45c-2.08,3.31-5.17,6.24-9.01,6.99
				c-3.84,0.75-8.35-1.34-9.33-5.12c-0.77-2.98,0.78-6.18,3.08-8.23c0.83-0.73,3.88-1.95,5.57-3.13
				C811.2,95.82,796.99,103.97,799.39,116.41z"/>
		</g>
	</g>
</g>
<g id="_x31_0_00000013155216552683244110000000052591299363477168_">
	<g id="_x31_0_00000111874407810452849000000006913310906797240716_">
		<path class="st0" d="M922.55,81.34c3.76-1.61,8.36-1.03,11.6,1.46c-0.63-8.37,4.69-16.85,12.49-19.93
			c7.81-3.08,17.48-0.52,22.74,6.03c3.8-12.85,16.2-23.04,29.6-22.98c13.4,0.06,26.18,11.37,26.67,24.76
			c3.65-4.8,10.56-5.4,16.58-5.18c6,0.21,12.4,0.99,16.98,4.88c6.5,5.51,7.13,15.2,6.78,23.71c7.41-3.45,16.94-3.22,23.04,2.21
			c6.1,5.43,6.88,16.45,0.46,21.5c-5.38,4.24-13.1,3.17-19.75,1.53c-5.63,9.41-14.81,16.87-25.47,19.42
			c-10.67,2.55-22.7-0.23-30.47-7.96c-5.86,8.27-16.46,12.91-26.5,11.6c-10.05-1.31-19.11-8.5-22.66-17.99
			c-6.42,4.42-15.47,4.64-22.1,0.53c-6.63-4.11-10.46-12.31-9.36-20.03c-4.39,3.12-10.92,2.79-14.97-0.76
			C911.14,97.94,914.2,84.91,922.55,81.34z"/>
		<g>
			<path class="st1" d="M946.65,62.87c-7.81,3.08-13.12,11.56-12.49,19.93c-3.24-2.49-7.85-3.07-11.6-1.46
				c-8.35,3.57-11.42,16.6-4.35,22.8c4.05,3.55,10.58,3.88,14.97,0.76c-1.1,7.72,2.73,15.92,9.36,20.03
				c6.63,4.11,15.68,3.89,22.1-0.53c3.55,9.49,12.61,16.68,22.66,17.99c10.05,1.31,20.65-3.33,26.5-11.6
				c7.77,7.73,19.81,10.51,30.47,7.96c10.67-2.55,19.84-10.01,25.47-19.42c6.65,1.64,14.37,2.71,19.75-1.53
				c6.42-5.05,5.65-16.07-0.46-21.5c-6.1-5.43-15.64-5.66-23.04-2.21c0.28-6.91-0.07-14.59-3.69-20.18
				c0.32,7.72-1.13,15.51-4.25,22.58c-1.41,3.2-3.27,6.37-6.19,8.3c-2.47,1.63-5.47,2.21-8.39,2.62
				c-5.74,0.82-11.54,1.15-17.33,0.99c-3.32-0.09-7.16-0.66-8.83-3.52c6.25-8.86,7.09-21.23,2.1-30.85
				c-4.15,10.84-13.91,19.95-25.45,21.13c-11.55,1.18-23.91-7.18-25.2-18.72c-1.69,6.55-0.26,13.83,3.78,19.25
				c-5.72,1.4-11.86,0.98-17.33-1.18c-5.1-2.01-9.81-5.83-11.34-11.09c-1.57-5.43,0.61-11.46,4.46-15.6
				c2.54-2.73,5.55-4.36,8.67-5.95C953.53,61.29,949.92,61.58,946.65,62.87z"/>
		</g>
	</g>
</g>
</svg>
